<svg width="25" height="25" viewBox="0 0 25 25" fill="none" xmlns="http://www.w3.org/2000/svg">
<path d="M1.50003 2.14014H10.08L11.567 8.83014L9.70703 10.6901C10.8007 12.3922 12.2477 13.8389 13.95 14.9321L15.81 13.0731L22.5 14.5601V23.1401H21.5C17.6504 23.1467 13.8814 22.0365 10.65 19.9441C8.26725 18.4021 6.23807 16.3729 4.69603 13.9901C2.60365 10.7587 1.49346 6.98981 1.50003 3.14014V2.14014ZM3.52703 4.14014C3.69554 7.26005 4.67776 10.2815 6.37603 12.9041C7.76435 15.0491 9.59107 16.8758 11.736 18.2641C14.3586 19.9624 17.3801 20.9446 20.5 21.1131V16.1641L16.447 15.2641L14.273 17.4391L13.61 17.0621C11.0927 15.6316 9.00857 13.5475 7.57803 11.0301L7.20103 10.3671L9.37603 8.19314L8.47603 4.14014H3.52703Z" fill="black"/>
</svg>
