<svg width="16" height="17" viewBox="0 0 16 17" fill="none" xmlns="http://www.w3.org/2000/svg">
<g clip-path="url(#clip0_277_3172)">
<path d="M8 0.666504C3.58175 0.666504 0 4.24825 0 8.6665C0 13.085 3.58175 16.6665 8 16.6665C12.4185 16.6665 16 13.085 16 8.6665C16 4.24825 12.4185 0.666504 8 0.666504ZM8 15.6823C4.14025 15.6823 1 12.5263 1 8.66647C1 4.80672 4.14025 1.66647 8 1.66647C11.8597 1.66647 15 4.80674 15 8.66647C15 12.5262 11.8597 15.6823 8 15.6823ZM11.1927 5.73925L6.49898 10.4625L4.38523 8.34875C4.18998 8.1535 3.87348 8.1535 3.67798 8.34875C3.48273 8.544 3.48273 8.8605 3.67798 9.05575L6.15273 11.5308C6.34798 11.7258 6.66448 11.7258 6.85998 11.5308C6.88248 11.5083 6.90175 11.4837 6.91925 11.4583L11.9003 6.44649C12.0953 6.25124 12.0953 5.93474 11.9003 5.73925C11.7048 5.544 11.3883 5.544 11.1927 5.73925Z" fill="black"/>
</g>
<defs>
<clipPath id="clip0_277_3172">
<rect width="16" height="16" fill="white" transform="translate(0 0.666504)"/>
</clipPath>
</defs>
</svg>
