<svg width="26" height="27" viewBox="0 0 26 27" fill="none" xmlns="http://www.w3.org/2000/svg">
<path d="M7.33333 22.1665H13.8333V24.3332H7.33333V22.1665ZM15.8982 15.3545C17.014 14.048 18.1667 12.6971 18.1667 10.2498C18.1667 6.06925 14.7639 2.6665 10.5833 2.6665C6.40275 2.6665 3 6.06925 3 10.2498C3 12.7253 4.15592 14.0718 5.27608 15.374C5.66392 15.8268 6.06583 16.2959 6.45042 16.8354C6.60642 17.0586 6.86208 17.9144 7.09067 18.9165H6.25V21.0832H14.9167V18.9165H14.0782C14.3089 17.9123 14.5657 17.0543 14.7206 16.8311C15.1019 16.2862 15.5071 15.8128 15.8982 15.3545ZM12.9472 15.5853C12.477 16.2537 12.0848 17.8332 11.8573 18.9165H9.31042C9.084 17.831 8.69075 16.2483 8.21517 15.5798C7.80804 15.0217 7.37571 14.4823 6.9195 13.9635C5.86433 12.735 5.16667 11.9225 5.16667 10.2498C5.16667 7.26309 7.59658 4.83317 10.5833 4.83317C13.5701 4.83317 16 7.26309 16 10.2498C16 11.8976 15.3034 12.7133 14.2504 13.9473C13.8463 14.4218 13.3881 14.958 12.9472 15.5853Z" fill="black"/>
</svg>
