<svg width="9" height="9" viewBox="0 0 9 9" fill="none" xmlns="http://www.w3.org/2000/svg">
<path d="M4.5 0C2.0115 0 0 2.0115 0 4.5C0 6.9885 2.0115 9 4.5 9C6.9885 9 9 6.9885 9 4.5C9 2.0115 6.9885 0 4.5 0ZM4.5 8.1C2.5155 8.1 0.9 6.4845 0.9 4.5C0.9 2.5155 2.5155 0.9 4.5 0.9C6.4845 0.9 8.1 2.5155 8.1 4.5C8.1 6.4845 6.4845 8.1 4.5 8.1ZM6.1155 2.25L4.5 3.8655L2.8845 2.25L2.25 2.8845L3.8655 4.5L2.25 6.1155L2.8845 6.75L4.5 5.1345L6.1155 6.75L6.75 6.1155L5.1345 4.5L6.75 2.8845L6.1155 2.25Z" fill="black"/>
</svg>
