<svg width="24" height="24" viewBox="0 0 24 24" fill="none" xmlns="http://www.w3.org/2000/svg">
<path d="M12 13.0001C13.6569 13.0001 15 11.6569 15 10.0001C15 8.34324 13.6569 7.00009 12 7.00009C10.3431 7.00009 9 8.34324 9 10.0001C9 11.6569 10.3431 13.0001 12 13.0001Z" stroke="black" stroke-width="2" stroke-linecap="round" stroke-linejoin="round"/>
<path d="M12 2.00009C9.87827 2.00009 7.84344 2.84295 6.34315 4.34324C4.84285 5.84353 4 7.87836 4 10.0001C4 11.8921 4.402 13.1301 5.5 14.5001L12 22.0001L18.5 14.5001C19.598 13.1301 20 11.8921 20 10.0001C20 7.87836 19.1571 5.84353 17.6569 4.34324C16.1566 2.84295 14.1217 2.00009 12 2.00009Z" stroke="black" stroke-width="2" stroke-linecap="round" stroke-linejoin="round"/>
</svg>
