<svg width="24" height="25" viewBox="0 0 24 25" fill="none" xmlns="http://www.w3.org/2000/svg">
<path d="M19.4846 20.654L13.2226 14.392C12.7226 14.818 12.1476 15.1477 11.4976 15.381C10.8476 15.6143 10.1943 15.731 9.53762 15.731C7.93628 15.731 6.58095 15.1767 5.47162 14.068C4.36228 12.9593 3.80762 11.6043 3.80762 10.003C3.80762 8.40165 4.36162 7.04598 5.46962 5.93598C6.57762 4.82598 7.93228 4.27032 9.53362 4.26898C11.135 4.26765 12.491 4.82232 13.6016 5.93298C14.7123 7.04365 15.2676 8.39932 15.2676 9.99998C15.2676 10.6947 15.1446 11.367 14.8986 12.017C14.6526 12.667 14.3293 13.223 13.9286 13.685L20.1906 19.946L19.4846 20.654ZM9.53862 14.73C10.8653 14.73 11.9853 14.2733 12.8986 13.36C13.8119 12.4467 14.2686 11.3263 14.2686 9.99898C14.2686 8.67165 13.8119 7.55165 12.8986 6.63898C11.9853 5.72632 10.8653 5.26965 9.53862 5.26898C8.21195 5.26832 7.09162 5.72498 6.17762 6.63898C5.26362 7.55298 4.80695 8.67298 4.80762 9.99898C4.80828 11.325 5.26495 12.445 6.17762 13.359C7.09028 14.273 8.21028 14.7297 9.53762 14.729" fill="black"/>
</svg>
